<?xml version="1.0" encoding="iso-8859-1"?>
<!-- Generator: Adobe Illustrator 19.0.0, SVG Export Plug-In . SVG Version: 6.00 Build 0)  -->
<svg version="1.1" id="Capa_1" xmlns="http://www.w3.org/2000/svg" xmlns:xlink="http://www.w3.org/1999/xlink" x="0px" y="0px"
	 viewBox="0 0 512.003 512.003" style="enable-background:new 0 0 512.003 512.003;" xml:space="preserve">
<g>
	<path style="fill:#FF901E;" d="M61.191,93.32H27.806c-11.315,0-20.519,9.205-20.519,20.519v15.801
		c0,11.314,9.204,20.519,20.519,20.519h33.385C61.191,150.159,61.191,93.32,61.191,93.32z"/>
	<path style="fill:#FF901E;" d="M61.191,182.829H27.806c-11.315,0-20.519,9.205-20.519,20.519v15.801
		c0,11.314,9.204,20.519,20.519,20.519h33.385C61.191,239.668,61.191,182.829,61.191,182.829z"/>
	<path style="fill:#FF901E;" d="M61.191,272.336H27.806c-11.315,0-20.519,9.205-20.519,20.519v15.801
		c0,11.314,9.204,20.519,20.519,20.519h33.385C61.191,329.175,61.191,272.336,61.191,272.336z"/>
	<path style="fill:#FF901E;" d="M61.191,361.844H27.806c-11.315,0-20.519,9.205-20.519,20.519v15.801
		c0,11.314,9.204,20.519,20.519,20.519h33.385C61.191,418.683,61.191,361.844,61.191,361.844z"/>
	<path style="fill:#FF901E;" d="M93.319,450.811L93.319,450.811v33.385c0,11.314,9.204,20.519,20.519,20.519h15.801
		c11.315,0,20.519-9.205,20.519-20.519v-33.385h-0.283H93.319z"/>
	<path style="fill:#FF901E;" d="M182.827,450.811L182.827,450.811v33.385c0,11.314,9.204,20.519,20.519,20.519h15.801
		c11.315,0,20.519-9.205,20.519-20.519v-33.385l0,0H182.827z"/>
	<path style="fill:#FF901E;" d="M272.334,450.811L272.334,450.811v33.385c0,11.314,9.204,20.519,20.519,20.519h15.801
		c11.315,0,20.519-9.205,20.519-20.519v-33.385l0,0H272.334z"/>
	<path style="fill:#FF901E;" d="M361.842,450.811L361.842,450.811v33.385c0,11.314,9.204,20.519,20.519,20.519h15.801
		c11.315,0,20.519-9.205,20.519-20.519v-33.385l0,0H361.842z"/>
</g>
<g>
	<path style="fill:#FF6D3A;" d="M484.194,93.32l-33.384-0.068v56.908h33.385c11.315,0,20.519-9.205,20.519-20.519V113.84
		C504.713,102.525,495.509,93.32,484.194,93.32z"/>
	<path style="fill:#FF6D3A;" d="M484.194,182.829l-33.385-0.019v56.858h33.385c11.315,0,20.519-9.205,20.519-20.519v-15.801
		C504.713,192.034,495.509,182.829,484.194,182.829z"/>
	<path style="fill:#FF6D3A;" d="M484.194,272.336l-33.384,0.166v56.75l33.385-0.076c11.315,0,20.519-9.205,20.519-20.519v-15.801
		C504.713,281.541,495.509,272.336,484.194,272.336z"/>
	<path style="fill:#FF6D3A;" d="M484.194,361.844H450.81v56.84h33.385c11.315,0,20.519-9.205,20.519-20.519v-15.801
		C504.713,371.049,495.509,361.844,484.194,361.844z"/>
</g>
<g>
	<path style="fill:#FF901E;" d="M150.158,61.193L150.158,61.193V27.808c0-11.314-9.204-20.519-20.519-20.519h-15.801
		c-11.315,0-20.519,9.205-20.519,20.519v33.385l0,0L150.158,61.193z"/>
	<path style="fill:#FF901E;" d="M239.666,61.193L239.666,61.193V27.808c0-11.314-9.204-20.519-20.519-20.519h-15.801
		c-11.315,0-20.519,9.205-20.519,20.519v33.385l0,0C182.827,61.193,239.666,61.193,239.666,61.193z"/>
	<path style="fill:#FF901E;" d="M329.173,61.193L329.173,61.193V27.808c0-11.314-9.204-20.519-20.519-20.519h-15.801
		c-11.315,0-20.519,9.205-20.519,20.519v33.385l0,0C272.334,61.193,329.173,61.193,329.173,61.193z"/>
	<path style="fill:#FF901E;" d="M418.681,61.193L418.681,61.193V27.808c0-11.314-9.204-20.519-20.519-20.519h-15.801
		c-11.315,0-20.519,9.205-20.519,20.519v33.385l0,0C361.842,61.193,418.681,61.193,418.681,61.193z"/>
</g>
<path style="fill:#2D5872;" d="M428.458,450.811H84.107c-12.783,0-22.917-10.133-22.917-22.634V83.826
	c0-12.5,10.133-22.634,22.634-22.634h344.351c12.5,0,22.634,10.133,22.634,22.634v344.351
	C450.809,440.678,440.676,450.811,428.458,450.811z"/>
<path style="fill:#1D4859;" d="M428.176,61.193h-37.544c12.5,0,22.634,10.133,22.634,22.634v344.351
	c0,12.5-10.134,22.634-22.634,22.634h37.544c12.5,0,22.634-10.133,22.634-22.634V83.826
	C450.81,71.326,440.676,61.193,428.176,61.193z"/>
<path style="fill:#FFB124;" d="M377.952,298.399V149.093c0-8.308-6.735-15.043-15.043-15.043H149.092
	c-8.308,0-15.043,6.735-15.043,15.043V362.91c0,8.308,6.735,15.043,15.043,15.043h149.305c3.99,0,7.816-1.585,10.637-4.406
	l64.512-64.512C376.367,306.215,377.952,302.389,377.952,298.399z"/>
<path style="fill:#FF901E;" d="M362.908,134.05h-22.501v140.758c0,3.99-1.585,7.816-4.406,10.637l-64.512,64.512
	c-2.821,2.821-6.647,4.406-10.637,4.406H134.048v8.547c0,8.308,6.735,15.043,15.043,15.043h149.305c3.99,0,7.816-1.585,10.637-4.406
	l64.512-64.512c2.821-2.821,4.406-6.647,4.406-10.637V149.094C377.952,140.785,371.217,134.05,362.908,134.05z"/>
<g>
	<path style="fill:#2D5872;" d="M179.441,256.389V230.78c0-18.276,7.476-27.414,22.429-27.414c3.151,0,5.952,0.423,8.4,1.268
		c2.45,0.845,4.505,2.013,6.166,3.502c1.661,1.49,3.029,3.324,4.103,5.5c1.074,2.177,1.847,4.54,2.321,7.09
		c0.472,2.55,0.709,5.357,0.709,8.422v4.707c0,1.079-0.874,1.953-1.953,1.953H210.14c-1.079,0-1.953-0.874-1.953-1.953v-5.18
		c0-1.403-0.029-2.613-0.086-3.63c-0.058-1.017-0.208-2.176-0.451-3.481c-0.244-1.303-0.574-2.363-0.989-3.179
		c-0.416-0.816-1.031-1.511-1.847-2.084c-0.817-0.573-1.798-0.86-2.944-0.86c-4.526,0-6.788,3.81-6.788,11.429v33.386
		c0,7.591,2.263,11.386,6.788,11.386c1.346,0,2.478-0.387,3.395-1.16c0.917-0.774,1.575-1.869,1.976-3.287s0.674-2.807,0.817-4.168
		c0.143-1.36,0.214-2.915,0.214-4.662v-5.996c0-1.079,0.874-1.953,1.953-1.953h11.391c1.079,0,1.953,0.874,1.953,1.953v4.578
		c-0.058,2.951-0.301,5.672-0.731,8.164c-0.43,2.492-1.16,4.913-2.192,7.261c-1.031,2.349-2.342,4.333-3.932,5.951
		c-1.589,1.619-3.645,2.922-6.165,3.91c-2.521,0.989-5.415,1.482-8.68,1.482c-3.351,0-6.324-0.48-8.916-1.439
		c-2.593-0.96-4.726-2.249-6.402-3.867s-3.058-3.609-4.146-5.973c-1.089-2.363-1.855-4.848-2.299-7.455
		C179.663,262.376,179.441,259.511,179.441,256.389z"/>
	<path style="fill:#2D5872;" d="M237.034,280.259v-73.436c0-1.079,0.874-1.953,1.953-1.953h16.738c6.732,0,11.63,1.877,14.695,5.629
		c3.065,3.753,4.597,9.181,4.597,16.285c0,3.495-0.337,6.531-1.009,9.109c-0.674,2.578-1.611,4.705-2.814,6.381
		s-2.75,3.022-4.64,4.039c-1.891,1.017-3.939,1.733-6.145,2.148c-1.718,0.324-3.644,0.53-5.778,0.619
		c-1.043,0.043-1.87,0.904-1.87,1.948v29.231c0,1.079-0.874,1.953-1.953,1.953h-11.819
		C237.909,282.212,237.034,281.338,237.034,280.259z M252.803,235.998c0,1.174,1.034,2.117,2.194,1.939
		c0.006-0.001,0.013-0.002,0.019-0.003c0.369-0.057,0.713-0.12,1.03-0.187c0.908-0.191,1.738-0.646,2.405-1.291
		c0.179-0.173,0.337-0.332,0.474-0.478c0.243-0.258,0.452-0.68,0.623-1.268c0.172-0.587,0.301-1.066,0.386-1.439
		c0.086-0.372,0.151-0.973,0.194-1.805c0.043-0.831,0.065-1.497,0.065-1.998s0-1.282,0-2.342c0-0.286,0-0.501,0-0.645
		c0-1.117-0.008-1.962-0.022-2.535s-0.065-1.303-0.15-2.191c-0.086-0.888-0.222-1.554-0.408-1.998
		c-0.187-0.444-0.459-0.952-0.817-1.525c-0.359-0.573-0.795-0.989-1.31-1.246c-0.516-0.258-1.168-0.487-1.955-0.687
		c-0.118-0.03-0.238-0.058-0.361-0.083c-1.218-0.252-2.368,0.671-2.368,1.914L252.803,235.998L252.803,235.998z"/>
	<path style="fill:#2D5872;" d="M286.763,253.467v-46.644c0-1.079,0.874-1.953,1.953-1.953h11.733c1.079,0,1.953,0.874,1.953,1.953
		v46.171c0,2.75,0.014,4.748,0.044,5.994c0.028,1.246,0.1,2.765,0.214,4.555c0.114,1.79,0.315,3.044,0.602,3.759
		c0.287,0.716,0.68,1.49,1.181,2.32c0.501,0.831,1.153,1.375,1.955,1.633c0.802,0.258,1.776,0.387,2.922,0.387
		c1.145,0,2.12-0.129,2.921-0.387c0.802-0.258,1.453-0.795,1.955-1.611c0.501-0.816,0.895-1.583,1.181-2.299
		c0.287-0.716,0.487-1.955,0.602-3.717c0.115-1.762,0.186-3.251,0.215-4.469c0.028-1.217,0.043-3.186,0.043-5.908
		c0-0.114,0-0.2,0-0.258v-46.171c0-1.079,0.874-1.953,1.953-1.953h11.734c1.079,0,1.953,0.874,1.953,1.953v46.644
		c0,2.464-0.072,4.698-0.215,6.703c-0.143,2.005-0.416,4.082-0.816,6.23c-0.401,2.148-0.945,4.046-1.633,5.693
		c-0.688,1.648-1.604,3.223-2.75,4.727s-2.5,2.743-4.061,3.717c-1.562,0.974-3.445,1.747-5.651,2.32s-4.683,0.859-7.433,0.859
		s-5.229-0.287-7.434-0.859c-2.206-0.574-4.082-1.346-5.629-2.32c-1.546-0.974-2.894-2.213-4.039-3.717
		c-1.146-1.504-2.063-3.079-2.75-4.727c-0.688-1.647-1.24-3.545-1.655-5.693c-0.416-2.148-0.695-4.225-0.838-6.23
		C286.834,258.165,286.763,255.931,286.763,253.467z"/>
</g>
<path d="M362.909,126.764H149.091c-12.312,0-22.329,10.017-22.329,22.33v79.767c0,4.024,3.262,7.287,7.287,7.287
	s7.287-3.262,7.287-7.287v-79.767c0-4.277,3.479-7.757,7.756-7.757H362.91c4.277,0,7.756,3.48,7.756,7.757v79.543
	c0,4.024,3.262,7.287,7.286,7.287c4.025,0,7.287-3.262,7.287-7.287v-79.543C385.238,136.781,375.221,126.764,362.909,126.764z"/>
<path d="M377.952,258.906c-4.025,0-7.286,3.262-7.286,7.287V298.4c0,2.072-0.806,4.02-2.272,5.485l-64.511,64.512
	c-1.465,1.465-3.413,2.271-5.485,2.271H149.091c-4.277,0-7.756-3.48-7.756-7.757v-96.95c0-4.024-3.262-7.287-7.287-7.287
	s-7.287,3.262-7.287,7.287v96.95c0,12.313,10.017,22.33,22.329,22.33h149.305c5.966,0,11.573-2.323,15.79-6.54l64.51-64.511
	c4.218-4.217,6.541-9.824,6.541-15.79v-32.208C385.238,262.168,381.976,258.906,377.952,258.906z"/>
<path d="M484.194,157.446c15.332,0,27.806-12.473,27.806-27.805V113.84c0-15.332-12.473-27.806-27.806-27.806h-26.099v-2.207
	c0-16.498-13.422-29.92-29.92-29.92h-2.208V27.808c0.001-15.333-12.473-27.806-27.805-27.806h-15.801
	c-15.332,0-27.806,12.473-27.806,27.806v26.099H336.46V27.808c0-15.333-12.473-27.806-27.805-27.806h-15.801
	c-15.332,0-27.806,12.473-27.806,27.806v26.099h-18.095V27.808c0-15.333-12.475-27.806-27.807-27.806h-15.801
	c-15.332,0-27.806,12.473-27.806,27.806v26.099h-18.096V27.808c0.001-15.333-12.472-27.806-27.804-27.806h-15.801
	c-15.332,0-27.806,12.473-27.806,27.806v26.099h-2.208c-16.498,0-29.92,13.422-29.92,29.92v2.207H27.806
	C12.473,86.034,0,98.507,0,113.839v15.801c0,15.332,12.473,27.805,27.806,27.805h26.099v18.096H27.806
	C12.473,175.542,0,188.016,0,203.348v15.801c0,15.332,12.473,27.805,27.806,27.805h26.099v18.096H27.806
	C12.473,265.05,0,277.523,0,292.855v15.801c0,15.332,12.473,27.806,27.806,27.806h26.099v18.096H27.806
	C12.473,354.558,0,367.031,0,382.363v15.801c0,15.332,12.473,27.806,27.806,27.806h26.099v2.207c0,16.498,13.422,29.92,29.92,29.92
	h2.208v26.099c0,15.332,12.473,27.806,27.806,27.806h15.801c15.332,0,27.805-12.473,27.805-27.806v-26.099h18.096v26.099
	c0,15.332,12.473,27.806,27.806,27.806h15.801c15.332,0,27.806-12.473,27.806-27.806v-26.099h18.095v26.099
	c0,15.332,12.474,27.806,27.806,27.806h15.801c15.332,0,27.805-12.473,27.805-27.806v-26.099h18.096v26.099
	c0,15.332,12.473,27.806,27.806,27.806h15.801c15.332,0,27.806-12.473,27.806-27.806v-26.099h2.208
	c16.498,0,29.92-13.422,29.92-29.92v-2.207h26.099c15.332,0,27.806-12.473,27.806-27.806v-15.801
	c0-15.332-12.473-27.806-27.806-27.806h-26.099v-18.095h26.099c15.332,0,27.806-12.474,27.806-27.806v-15.801
	c0-15.332-12.473-27.806-27.806-27.806h-26.099v-18.096h26.099c15.332,0,27.806-12.473,27.806-27.805v-15.801
	c0-15.332-12.473-27.806-27.806-27.806h-26.099v-18.096h26.096V157.446z M458.096,100.607h26.099
	c7.296,0,13.232,5.936,13.232,13.232v15.801c0,7.296-5.936,13.232-13.232,13.232h-26.099V100.607z M53.904,411.397H27.806
	c-7.296,0-13.232-5.936-13.232-13.232v-15.801c0-7.296,5.936-13.232,13.232-13.232h26.099L53.904,411.397L53.904,411.397z
	 M53.904,321.889H27.806c-7.296,0-13.232-5.936-13.232-13.233v-15.801c0-7.297,5.936-13.232,13.232-13.232h26.099L53.904,321.889
	L53.904,321.889z M53.904,232.381H27.806c-7.296,0-13.232-5.936-13.232-13.232v-15.801c0-7.296,5.936-13.233,13.232-13.233h26.099
	L53.904,232.381L53.904,232.381z M53.904,142.873H27.806c-7.296,0-13.232-5.936-13.232-13.232V113.84
	c0-7.296,5.936-13.232,13.232-13.232h26.099L53.904,142.873L53.904,142.873z M369.129,27.808c0-7.296,5.936-13.232,13.232-13.232
	h15.801c7.296,0,13.232,5.936,13.232,13.232v26.099h-42.266V27.808H369.129z M279.62,27.808c0-7.296,5.936-13.232,13.233-13.232
	h15.801c7.296,0,13.232,5.936,13.232,13.232v26.099H279.62V27.808z M190.113,27.808c0-7.296,5.936-13.232,13.232-13.232h15.801
	c7.297,0,13.233,5.936,13.233,13.232v26.099h-42.267V27.808H190.113z M100.605,27.808c0-7.296,5.936-13.232,13.232-13.232h15.801
	c7.296,0,13.232,5.936,13.232,13.232v26.099h-42.266V27.808H100.605z M142.871,484.196c0,7.297-5.936,13.232-13.232,13.232h-15.801
	c-7.296,0-13.232-5.936-13.232-13.232v-26.099h42.266v26.099H142.871z M232.38,484.196c0,7.297-5.936,13.232-13.233,13.232h-15.801
	c-7.296,0-13.232-5.936-13.232-13.232v-26.099h42.267v26.099H232.38z M321.887,484.196c0,7.297-5.936,13.232-13.232,13.232h-15.801
	c-7.297,0-13.233-5.936-13.233-13.232v-26.099h42.267v26.099H321.887z M411.395,484.196c0,7.297-5.936,13.232-13.232,13.232h-15.801
	c-7.296,0-13.232-5.936-13.232-13.232v-26.099h42.266v26.099H411.395z M443.523,86.034v71.412v18.096v71.412v18.096v71.412v18.096
	v71.412v2.207c0,8.463-6.885,15.347-15.347,15.347h-2.208h-71.412H336.46h-71.413h-18.095H175.54h-18.096H86.032h-2.208
	c-8.462,0-15.347-6.885-15.347-15.347v-2.207v-71.412v-18.096v-71.412v-18.096v-71.412v-18.096V86.034v-2.207
	c0-8.463,6.885-15.347,15.347-15.347h2.208h71.412h18.096h71.413h18.095h71.413h18.096h71.412h2.208
	c8.462,0,15.347,6.885,15.347,15.347L443.523,86.034L443.523,86.034z M484.194,369.131c7.296,0,13.232,5.936,13.232,13.232v15.801
	c0,7.296-5.936,13.232-13.232,13.232h-26.099V369.13h26.099V369.131z M484.194,279.623c7.296,0,13.232,5.936,13.232,13.232v15.801
	c0,7.296-5.936,13.233-13.232,13.233h-26.099v-42.266H484.194z M484.194,190.115c7.296,0,13.232,5.936,13.232,13.233v15.801
	c0,7.296-5.936,13.232-13.232,13.232h-26.099v-42.266H484.194z"/>
<g>
</g>
<g>
</g>
<g>
</g>
<g>
</g>
<g>
</g>
<g>
</g>
<g>
</g>
<g>
</g>
<g>
</g>
<g>
</g>
<g>
</g>
<g>
</g>
<g>
</g>
<g>
</g>
<g>
</g>
</svg>
