<?xml version="1.0" encoding="utf-8"?>
<!-- Generator: Adobe Illustrator 24.3.0, SVG Export Plug-In . SVG Version: 6.00 Build 0)  -->
<svg version="1.1" id="Layer_1" xmlns="http://www.w3.org/2000/svg" xmlns:xlink="http://www.w3.org/1999/xlink" x="0px" y="0px"
	 viewBox="0 0 541.9 385.8" style="enable-background:new 0 0 541.9 385.8;" xml:space="preserve">
<style type="text/css">
	.st0{fill:#231F20;}
	.st1{fill:#EBBA16;}
	.st2{fill:#DC691D;}
	.st3{fill:#F7E6A1;}
	.st4{fill:#FFFFFF;}
	.st5{fill:#28384C;}
	.st6{fill:#EFC54B;}
	.st7{fill:#DD352E;}
	.st8{fill:#162433;}
	.st9{fill:#E7ECED;}
</style>
<g>
	<g>
		<path class="st0" d="M35.5,185.7c-8.3,0-15-6.7-15-15v-52.1c0-8.3,6.7-15,15-15h34.7c8.3,0,15,6.7,15,15v52.1c0,8.3-6.7,15-15,15
			L35.5,185.7L35.5,185.7z"/>
	</g>
	<g>
		<rect x="35.5" y="118.6" class="st1" width="34.7" height="52.1"/>
	</g>
</g>
<g>
	<g>
		<path class="st0" d="M35.5,304.9c-8.3,0-15-6.7-15-15v-34.7c0-8.3,6.7-15,15-15h34.7c8.3,0,15,6.7,15,15v34.7c0,8.3-6.7,15-15,15
			H35.5z"/>
	</g>
	<g>
		<rect x="35.5" y="255.2" class="st1" width="34.7" height="34.7"/>
	</g>
</g>
<g>
	<g>
		<path class="st0" d="M35.5,99.5c-13.1,0-23.7-10.6-23.7-23.7s10.6-23.7,23.7-23.7h34.7c13.1,0,23.7,10.6,23.7,23.7
			S83.3,99.5,70.2,99.5H35.5z"/>
	</g>
	<g>
		<path class="st2" d="M70.2,84.5H35.5c-4.8,0-8.7-3.9-8.7-8.7s3.9-8.7,8.7-8.7h34.7c4.8,0,8.7,3.9,8.7,8.7S75,84.5,70.2,84.5z"/>
	</g>
</g>
<g>
	<g>
		<path class="st0" d="M35.4,237.3c-8.4,0-15.9-4.3-20.1-11.4c-4.3-7.5-4.3-17.1,0-24.6c4.1-7.1,11.6-11.4,20.1-11.4h35
			c13.1,0,23.3,10.4,23.3,23.7c0,13.3-10.2,23.7-23.3,23.7C70.4,237.3,35.4,237.3,35.4,237.3z"/>
	</g>
	<g>
		<path class="st2" d="M70.2,222.2H35.5c-11.3,0.2-11.3-17.6,0-17.4h34.7C81.5,204.7,81.5,222.4,70.2,222.2z"/>
	</g>
</g>
<g>
	<g>
		<path class="st0" d="M258,385.8c-8.3,0-15-6.7-15-15v-78.1c0-8.3,6.7-15,15-15h190.9c8.3,0,15,6.7,15,15v78.1c0,8.3-6.7,15-15,15
			H258z"/>
		<path class="st0" d="M396.8,385.8c-8.3,0-15-6.7-15-15v-26c0-13.1,10.6-23.7,23.7-23.7s23.7,10.6,23.7,23.7v26c0,8.3-6.7,15-15,15
			H396.8z"/>
		<path class="st0" d="M362.1,385.8c-8.3,0-15-6.7-15-15v-26c0-13.1,10.6-23.7,23.7-23.7s23.7,10.6,23.7,23.7v26c0,8.3-6.7,15-15,15
			H362.1z"/>
		<path class="st0" d="M327.4,385.8c-8.3,0-15-6.7-15-15v-26c0-13.1,10.6-23.7,23.7-23.7s23.7,10.6,23.7,23.7v26c0,8.3-6.7,15-15,15
			H327.4z"/>
		<path class="st0" d="M292.7,385.8c-8.3,0-15-6.7-15-15v-26c0-13.1,10.6-23.7,23.7-23.7s23.7,10.6,23.7,23.7v26c0,8.3-6.7,15-15,15
			H292.7z"/>
	</g>
	<g>
		<rect x="258" y="292.7" class="st1" width="190.9" height="78.1"/>
		<path class="st3" d="M405.5,336.1c-4.8,0-8.7,3.9-8.7,8.7v26h17.4v-26C414.2,340,410.3,336.1,405.5,336.1z"/>
		<path class="st3" d="M370.8,336.1c-4.8,0-8.7,3.9-8.7,8.7v26h17.4v-26C379.5,340,375.6,336.1,370.8,336.1z"/>
		<path class="st3" d="M336.1,336.1c-4.8,0-8.7,3.9-8.7,8.7v26h17.4v-26C344.8,340,340.9,336.1,336.1,336.1z"/>
		<path class="st3" d="M301.4,336.1c-4.8,0-8.7,3.9-8.7,8.7v26h17.4v-26C310.1,340,306.2,336.1,301.4,336.1z"/>
	</g>
</g>
<g>
	<g>
		<path class="st0" d="M136.5,385.8c-8.3,0-15-6.7-15-15v-78.1c0-8.3,6.7-15,15-15h69.4c8.3,0,15,6.7,15,15v78.1c0,8.3-6.7,15-15,15
			H136.5z"/>
		<path class="st0" d="M162.5,385.8c-8.3,0-15-6.7-15-15v-26c0-13.1,10.6-23.7,23.7-23.7c13.1,0,23.7,10.6,23.7,23.7v26
			c0,8.3-6.7,15-15,15H162.5z"/>
	</g>
	<g>
		<rect x="136.5" y="292.7" class="st1" width="69.4" height="78.1"/>
		<path class="st3" d="M171.2,336.1c-4.8,0-8.7,3.9-8.7,8.7v26h17.4v-26C179.9,340,176,336.1,171.2,336.1z"/>
	</g>
</g>
<path class="st4" d="M405.5,223.3c-19.1,0-34.7-15.6-34.7-34.7s15.6-34.7,34.7-34.7s34.7,15.6,34.7,34.7S424.7,223.3,405.5,223.3z
	 M405.5,171.2c-9.6,0-17.4,7.8-17.4,17.4s7.8,17.4,17.4,17.4s17.4-7.8,17.4-17.4S415.1,171.2,405.5,171.2z"/>
<g>
	<g>
		<path class="st0" d="M110.4,325.1c-27.4,0-49.7-22.3-49.7-49.7V67.1c0-8.3,6.7-15,15-15h416.6c13.3,0,25.8,5.2,35.2,14.6
			c9.3,9.4,14.5,21.9,14.4,35.2v173.5c0,27.4-22.3,49.7-49.7,49.7H110.4z"/>
		<path class="st0" d="M214.6,212.2c-13.1,0-23.7-10.6-23.7-23.7c0-13.1,10.6-23.7,23.7-23.7h34.7c13.1,0,23.7,10.6,23.7,23.7
			s-10.6,23.7-23.7,23.7H214.6z"/>
		<path class="st0" d="M75.7,212.2c-13.1,0-23.7-10.6-23.7-23.7c0-13.1,10.6-23.7,23.7-23.7h95.5c13.1,0,23.7,10.6,23.7,23.7
			s-10.6,23.7-23.7,23.7H75.7z"/>
		<path class="st0" d="M306.4,325c-4,0-7.8-1.6-10.6-4.4l-56.4-56.4H75.8c-8.3,0-15-6.7-15-15V127.7c0-8.3,6.7-15,15-15h163.8
			l56.3-56.3c2.8-2.8,6.6-4.4,10.6-4.4H331c6.1,0,11.5,3.7,13.9,9.3c2.3,5.6,1,12.1-3.3,16.3L266,153.2c-4.4,4.4-10.5,6.9-16.7,6.9
			H99.4v56.8h149.9c6.2,0,12.3,2.5,16.7,6.9l75.6,75.6c4.3,4.3,5.6,10.7,3.3,16.3c-2.3,5.6-7.8,9.3-13.9,9.3L306.4,325L306.4,325z"
			/>
		<g>
			<g>
				<path class="st0" d="M405.7,298.4c-7,0-14-0.7-20.9-2c-59.5-11.5-98.5-69.1-87.1-128.6c9.9-51.6,55.2-89.1,107.7-89.1
					c7,0,14,0.7,20.9,2c59.5,11.4,98.5,69.1,87.1,128.6C503.4,260.9,458.1,298.4,405.7,298.4z"/>
				<g>
					<path class="st0" d="M423.9,201.8c-8.5,0-16.4-3.3-22.4-9.3c-12.4-12.4-12.4-32.5,0-44.8c2.2-2.8,0.4-16.2-6.1-22.7
						s-9.8-15.6-9-24.9c0.9-11.9,11-21.2,23-21.2h0.4c0.2,0,0.5,0,0.7,0c10,0.5,19.3,2.1,27.8,4.7c5,1.5,9.4,4.8,12.4,9.2
						c18.4,27.9,23.2,72.2-4,99.6c-0.1,0.1-0.1,0.1-0.2,0.2C440.3,198.6,432.3,201.8,423.9,201.8z"/>
					<path class="st0" d="M431.5,220.2c-17.5,0-31.7-14.2-31.7-31.7s14.2-31.7,31.7-31.7c0.8-0.1,3.7-1.8,6.7-6.1
						c3-4.5,5-10.1,5-14.3c0-9.1,4-17.8,11.1-23.9c4.2-3.6,9.4-5.6,15-5.6c6.4,0,12.4,2.6,16.8,7.3l0.1,0.1
						c6.6,7.2,12.1,15,16.3,23.1c2.4,4.4,3.2,9.5,2.4,14.8c0,0.2-0.1,0.4-0.1,0.7C498.1,185.5,470.1,220.2,431.5,220.2z"/>
					<path class="st0" d="M450.9,248.7c-19.6,0-36.7-6.7-49.4-19.4c-6-6-9.3-14-9.3-22.4s3.3-16.4,9.3-22.4s14-9.3,22.4-9.3
						s16.3,3.3,22.3,9.2c0.4,0.3,2,0.9,4.8,0.9c0.9,0,1.7-0.1,2.7-0.2c5.8-0.7,11.9-3.4,15.3-6.7c5.9-5.9,13.9-9.2,22.3-9.2
						c0.7,0,2,0,3.4,0.2c12,1.3,20.8,11.6,20.2,23.9c-0.5,9.8-2,19.1-4.6,27.6c-1.5,5.1-4.8,9.5-9.3,12.5
						c-11.8,7.8-25.9,13-39.7,14.7c-0.1,0-0.1,0-0.2,0C457.6,248.5,454.1,248.7,450.9,248.7z"/>
					<path class="st0" d="M445.8,288.4c-1.4,0-2.9-0.2-4.6-0.5h-0.1c-16.6-3.5-33-12.1-45.1-23.8c-14.5-14-22.2-31.1-22.2-49.5
						c0-17.5,14.2-31.7,31.7-31.7s31.7,14.2,31.7,31.7c0.1,0.8,1.8,3.7,6.1,6.7c4.5,3,10.1,5,14.3,5c9.1,0,17.9,4,23.9,11.1l0.1,0.1
						c8.1,9.5,7.2,23.5-2.1,31.9c-7.2,6.5-14.9,11.9-22.7,16.1C453.6,287.4,449.8,288.4,445.8,288.4z"/>
					<path class="st0" d="M401.4,298.2c-0.2,0-0.5,0-0.7,0c-10-0.5-19.3-2.1-27.8-4.7c-5-1.5-9.4-4.8-12.4-9.2
						c-9.4-14.2-14.9-32-15.2-48.9c-0.4-19.9,6.4-37.9,19.2-50.7c5.9-6.1,13.9-9.4,22.5-9.4c8.5,0,16.4,3.3,22.4,9.3
						c12.4,12.4,12.4,32.5,0,44.8c-2.2,2.8-0.4,16.2,6.1,22.7s9.8,15.4,9.1,24.7c-0.7,12-10.7,21.4-22.8,21.4H401.4z"/>
					<path class="st0" d="M341.6,270.2c-6.4,0-12.4-2.6-16.8-7.3l-0.1-0.1c-6.5-7.1-12-14.8-16.3-23.1c-2.4-4.4-3.2-9.7-2.4-14.9
						c0-0.2,0.1-0.4,0.1-0.6c3.5-16.6,12.1-33,23.8-45.1c14-14.5,31.1-22.2,49.5-22.2c17.5,0,31.7,14.2,31.7,31.7
						s-14.2,31.7-31.7,31.7c-0.8,0.1-3.7,1.8-6.7,6.1c-3,4.5-5,10.1-5,14.3c0,9.2-4.1,18-11.3,24C352.3,268.3,347,270.2,341.6,270.2
						z"/>
					<path class="st0" d="M405.5,194.2c-17.5,0-31.7-14.2-31.7-31.7c-0.1-0.8-1.8-3.7-6.1-6.7c-4.5-3-10.1-5-14.3-5
						c-9.2,0-18-4.1-24.1-11.3c-8-9.5-7.1-23.5,2.1-31.9c7-6.5,14.9-12,23.1-16.3c0.1,0,0.1-0.1,0.2-0.1c3.3-1.6,6.8-2.5,10.4-2.5
						c1.4,0,2.9,0.2,4.5,0.5h0.1c16.6,3.5,33,12.1,45.1,23.8c14.5,14,22.2,31.1,22.2,49.5C437.2,180,423,194.2,405.5,194.2z"/>
					<path class="st0" d="M319.6,208c-2.3,0-4.2-0.4-5.1-0.6l0,0c-11.2-2.1-19.2-12.3-18.6-23.7c0.5-9.8,2-19,4.6-27.5
						c1.5-5.1,4.8-9.5,9.3-12.5c11.8-7.8,25.8-13,39.5-14.7c3.7-0.5,7.2-0.7,10.7-0.7c19.6,0,36.6,6.7,49.3,19.4
						c0.1,0.1,0.1,0.1,0.2,0.2c5.9,6.1,9.1,14,9.1,22.2c0,8.5-3.3,16.4-9.3,22.4c-6,6-14,9.3-22.4,9.3s-16.3-3.3-22.3-9.2
						c-0.4-0.3-2-0.9-4.9-0.9c-0.9,0-1.7,0.1-2.7,0.2c-5.7,0.7-11.7,3.3-15.1,6.6C336.2,204.5,328.1,208,319.6,208z"/>
				</g>
			</g>
			<g>
				<circle class="st0" cx="405.5" cy="188.6" r="101.8"/>
				<g>
					<path class="st0" d="M423.8,193.8c-6.3,0-12.3-2.4-16.7-6.9c-4.5-4.5-6.9-10.4-6.9-16.8s2.5-12.3,6.9-16.8
						c2.1-2,3.2-5.7,3.2-10.3c0-8.5-3.8-18.2-9.3-23.7c-0.1-0.1-0.2-0.2-0.3-0.3c-4.5-4.7-6.9-11.2-6.6-17.7c0.3-8.1,7-14.4,15-14.4
						c0.2,0,0.4,0,0.6,0c9.1,0.4,17.8,1.8,25.9,4.4c3.3,1,6.1,3.2,8,6.1c16.6,25.2,21.2,65.2-3.1,89.5c-0.1,0.1-0.2,0.2-0.3,0.3
						C435.7,191.5,429.9,193.8,423.8,193.8z"/>
					<path class="st0" d="M431.6,212.3c-13.1,0-23.7-10.6-23.7-23.7s10.6-23.7,23.7-23.7c8.8,0,19.7-15.7,19.7-28.4
						c0-6.9,3.1-13.5,8.4-18c2.8-2.4,6.2-3.5,9.7-3.5c4.1,0,8.2,1.7,11.1,4.9c6,6.6,11,13.7,15.1,21.3c1.7,3.1,2.2,6.7,1.5,10.2
						C490.9,180.9,465.8,212.3,431.6,212.3z"/>
					<path class="st0" d="M450.8,240.7c-17.5,0-32.6-5.9-43.7-17c-4.5-4.5-6.9-10.4-6.9-16.8c0-6.3,2.5-12.3,6.9-16.8
						c4.5-4.5,10.4-6.9,16.8-6.9c6.3,0,12.3,2.5,16.8,6.9c2,2,5.9,3.2,10.4,3.2c1.2,0,2.5-0.1,3.7-0.2h0.1c7.6-0.9,15.2-4.3,19.9-9
						c4.4-4.4,10.3-6.8,16.6-6.8c0.7,0,1.4,0,2,0.1c8,0.7,14.1,7.5,13.7,15.5c-0.4,9.3-1.9,18.1-4.6,26.1c-1.1,3.2-3.2,6-6,7.8
						c-11,7.2-23.4,11.8-36.1,13.3h-0.1C456.9,240.5,453.7,240.7,450.8,240.7z"/>
					<path class="st0" d="M445.8,280.4c-1,0-2.1-0.1-3.1-0.3c-29.5-6.2-60.9-31.3-60.9-65.5c0-13.1,10.6-23.7,23.7-23.7
						s23.7,10.6,23.7,23.7c0,8.8,15.7,19.7,28.4,19.7c6.9,0,13.4,3.1,18,8.5c5.2,6.2,4.6,15.3-1.4,20.8
						c-6.7,6.1-13.9,11.2-21.4,15.1C450.6,279.8,448.2,280.4,445.8,280.4z"/>
					<path class="st0" d="M401.7,290.1c-0.2,0-0.4,0-0.6,0c-9.1-0.4-17.8-1.8-25.9-4.4c-3.3-1-6.1-3.2-8-6.1
						c-16.6-25.2-21.2-65.2,3.1-89.5c4.5-4.5,10.4-6.9,16.8-6.9c6.3,0,12.3,2.5,16.8,6.9c9.2,9.2,9.2,24.3,0,33.5
						c-6.2,6.2-2.8,25,6.1,34c4.8,4.8,7.3,11.6,6.7,18.6C416,284.1,409.5,290.1,401.7,290.1z"/>
					<path class="st0" d="M341.6,262.2c-4.1,0-8.2-1.7-11.1-4.9c-6.1-6.7-11.2-13.9-15.1-21.4c-1.6-3.1-2.1-6.6-1.4-10
						c6.2-29.5,31.3-60.9,65.5-60.9c13,0,23.6,10.6,23.6,23.7s-10.6,23.7-23.7,23.7c-8.8,0-19.7,15.7-19.7,28.4
						c0,6.9-3.1,13.5-8.4,18C348.5,261,345,262.2,341.6,262.2z"/>
					<path class="st0" d="M405.5,186.1c-13.1,0-23.7-10.6-23.7-23.7c0-8.8-15.7-19.7-28.4-19.7c-6.9,0-13.5-3.1-18-8.4
						c-5.2-6.2-4.6-15.3,1.4-20.8c6.7-6.1,13.9-11.2,21.4-15.1c2.2-1.1,4.5-1.7,6.9-1.7c1,0,2.1,0.1,3.1,0.3
						c29.5,6.2,60.9,31.2,60.9,65.4C429.2,175.5,418.6,186.1,405.5,186.1z"/>
					<path class="st0" d="M319.6,200c-1.1,0-2.1-0.1-2.8-0.2c-3.3-0.5-6.4-2-8.7-4.5c-2.8-2.9-4.3-6.9-4.2-11
						c0.4-9.1,1.8-17.8,4.4-25.9c1-3.3,3.2-6.2,6.1-8.1c11-7.2,23.4-11.8,36.1-13.3c3.3-0.4,6.6-0.6,9.8-0.6
						c17.1,0,32.6,6.1,43.6,17.1c4.5,4.5,6.9,10.4,6.9,16.8s-2.5,12.3-6.9,16.8c-4.5,4.5-10.4,6.9-16.8,6.9s-12.3-2.5-16.8-6.9
						c-2-2-5.9-3.1-10.5-3.1c-1.2,0-2.4,0.1-3.7,0.2c-7.6,0.9-15.2,4.3-19.9,9c-0.1,0.1-0.2,0.2-0.3,0.3
						C331.5,197.7,325.7,200,319.6,200z"/>
				</g>
			</g>
		</g>
	</g>
	<g>
		<path class="st5" d="M492.3,67.1H75.7v208.3c0,19.2,15.5,34.7,34.7,34.7h381.8c19.2,0,34.7-15.5,34.7-34.7V101.8
			C527,82.6,511.5,67.1,492.3,67.1L492.3,67.1z"/>
		<path class="st6" d="M249.3,197.2h-34.7c-4.8,0-8.7-3.9-8.7-8.7s3.9-8.7,8.7-8.7h34.7c4.8,0,8.7,3.9,8.7,8.7
			S254.1,197.2,249.3,197.2z"/>
		<path class="st6" d="M171.2,197.2H75.7c-4.8,0-8.7-3.9-8.7-8.7s3.9-8.7,8.7-8.7h95.5c4.8,0,8.7,3.9,8.7,8.7S176,197.2,171.2,197.2
			z"/>
		<path class="st7" d="M245.7,249.3l60.7,60.7H331l-75.6-75.6c-1.6-1.6-3.8-2.5-6.1-2.5H84.4v-86.8h164.9c2.3,0,4.5-0.9,6.1-2.5
			L331,67h-24.5l-60.7,60.7h-170v121.5h169.9V249.3z"/>
		<g>
			<g>
				<ellipse class="st0" cx="405.6" cy="188.6" rx="94.8" ry="94.8"/>
				<g>
					<path class="st0" d="M423.9,186.8c-4.5,0-8.6-1.7-11.8-4.9c-6.5-6.5-6.5-17.1,0-23.6c9.7-9.7,4.8-33-6.1-43.9
						c-3.4-3.4-5.1-8.2-4.7-13.1c0.3-4.2,3.8-7.4,8-7.4c0.1,0,0.2,0,0.4,0c8.5,0.4,16.6,1.7,24.1,4.1c1.8,0.5,3.3,1.7,4.3,3.2
						c15.1,22.9,19.4,59-2.2,80.7C432.6,185.1,428.4,186.8,423.9,186.8z"/>
					<path class="st0" d="M431.5,205.2c-9.2,0-16.7-7.5-16.7-16.7s7.5-16.7,16.7-16.7c13.8,0,26.7-19.9,26.7-35.4
						c0-4.8,2.2-9.4,5.9-12.6c1.5-1.3,3.3-1.9,5.2-1.9c2.2,0,4.3,0.9,5.9,2.6c5.6,6.1,10.4,12.8,14.1,20c0.9,1.6,1.1,3.5,0.8,5.4
						C484.6,176.7,462.1,205.2,431.5,205.2z"/>
					<path class="st0" d="M450.9,233.7c-15.6,0-29-5.2-38.8-15c-3.2-3.2-4.9-7.3-4.9-11.8s1.7-8.6,4.9-11.8
						c3.1-3.1,7.3-4.9,11.8-4.9l0,0c4.5,0,8.6,1.7,11.8,4.9c3.3,3.3,8.8,5.2,15.3,5.2c1.5,0,3-0.1,4.6-0.3c9.1-1.1,18.3-5.3,24-11
						c3.1-3.1,7.2-4.8,11.7-4.8c0.5,0,1,0,1.4,0.1c4.3,0.3,7.5,4,7.3,8.3c-0.4,8.4-1.7,16.5-4,24c-0.5,1.8-1.7,3.3-3.2,4.3
						c-9.8,6.5-21.6,10.9-33.2,12.3C456.8,233.5,453.8,233.7,450.9,233.7z"/>
					<path class="st0" d="M445.8,273.4c-0.5,0-1.1-0.1-1.6-0.2c-26.8-5.6-55.4-28-55.4-58.6c0-9.2,7.5-16.7,16.7-16.7
						s16.7,7.5,16.7,16.7c0,13.8,19.9,26.7,35.4,26.7c4.8,0,9.4,2.2,12.6,5.9c2.8,3.3,2.5,8.2-0.7,11.1c-6.2,5.6-12.9,10.4-20,14.1
						C448.4,273.1,447.1,273.4,445.8,273.4z"/>
					<path class="st0" d="M401.8,283.2c-0.1,0-0.2,0-0.4,0c-8.5-0.4-16.6-1.7-24.1-4.1c-1.8-0.5-3.3-1.7-4.3-3.2
						c-15.1-22.9-19.4-59,2.2-80.7c3.1-3.2,7.3-4.9,11.8-4.9s8.6,1.7,11.8,4.9c6.5,6.5,6.5,17.1,0,23.6c-9.7,9.7-4.8,33,6.1,43.9
						c3.4,3.4,5.1,8.2,4.7,13.1C409.4,280,405.9,283.2,401.8,283.2z"/>
					<path class="st0" d="M341.6,255.2c-2.2,0-4.3-0.9-5.9-2.6c-5.6-6.1-10.4-12.9-14.1-20c-0.9-1.6-1.1-3.5-0.8-5.3
						c5.6-26.8,28-55.4,58.6-55.4c9.2,0,16.7,7.5,16.7,16.7s-7.5,16.7-16.7,16.7c-13.8,0-26.7,19.9-26.7,35.4c0,4.8-2.2,9.4-6,12.6
						C345.3,254.5,343.5,255.2,341.6,255.2z"/>
					<path class="st0" d="M405.5,179.2c-9.2,0-16.7-7.5-16.7-16.7c0-13.8-19.9-26.7-35.4-26.7c-4.8,0-9.4-2.2-12.6-6
						c-2.8-3.3-2.5-8.2,0.7-11.1c6.1-5.6,12.9-10.4,20-14.1c1.2-0.6,2.4-0.9,3.7-0.9c0.5,0,1.1,0.1,1.6,0.2
						c26.8,5.6,55.4,28,55.4,58.6C422.2,171.7,414.7,179.2,405.5,179.2z"/>
					<path class="st0" d="M319.6,193c-0.9,0-1.7-0.2-2.2-0.3c-3.9-0.7-6.7-4.2-6.5-8.2c0.4-8.4,1.7-16.5,4-24
						c0.5-1.8,1.7-3.3,3.2-4.3c9.8-6.5,21.6-10.9,33.1-12.3c3-0.4,5.9-0.6,8.8-0.6c15.5,0,28.9,5.2,38.7,15
						c3.1,3.2,4.9,7.3,4.9,11.8s-1.7,8.6-4.9,11.8c-3.1,3.1-7.3,4.9-11.8,4.9s-8.6-1.7-11.8-4.9c-3.3-3.3-8.8-5.2-15.4-5.2
						c-1.5,0-3,0.1-4.6,0.3c-9.1,1.1-18.3,5.3-24,11C328.2,191.2,324.1,193,319.6,193z"/>
				</g>
			</g>
			<g>
				<circle class="st8" cx="405.5" cy="188.6" r="86.8"/>
				<g>
					<path class="st4" d="M411.6,108.8c13.8,13.8,19.4,42,6.1,55.2c-3.4,3.4-3.4,8.9,0,12.3c1.7,1.7,3.9,2.5,6.1,2.5
						s4.4-0.9,6.1-2.5c17.9-17.9,15.1-49.5,1.2-70.6c-7-2.2-14.4-3.4-22-3.7C409,104.4,409.8,106.9,411.6,108.8z"/>
					<path class="st4" d="M469.4,130c-1.9,1.6-3.1,3.9-3.1,6.5c0,19.5-16,43.4-34.7,43.4c-4.8,0-8.7,3.9-8.7,8.7s3.9,8.7,8.7,8.7
						c25.3,0,45.6-24.3,50.8-49C478.8,141.6,474.4,135.5,469.4,130z"/>
					<path class="st4" d="M492.1,192.3c-2.4-0.2-4.9,0.5-6.8,2.4c-7,7-17.7,12-28.7,13.3c-11,1.4-20.7-1.3-26.6-7.2
						c-3.4-3.4-8.9-3.4-12.3,0s-3.4,8.9,0,12.3c8.3,8.3,19.8,12.6,33.1,12.6c2.5,0,5.2-0.2,7.8-0.5c10.6-1.3,21-5.3,29.7-11
						C490.6,207.3,491.8,199.9,492.1,192.3L492.1,192.3z"/>
					<path class="st4" d="M457.6,249.3c-19.5,0-43.4-16-43.4-34.7c0-4.8-3.9-8.7-8.7-8.7s-8.7,3.9-8.7,8.7c0,25.3,24.3,45.6,49,50.8
						c6.7-3.5,12.8-7.9,18.3-12.9C462.5,250.6,460.2,249.3,457.6,249.3L457.6,249.3z"/>
					<path class="st4" d="M393.2,213.1c3.4-3.4,3.4-8.9,0-12.3s-8.9-3.4-12.3,0c-17.9,17.9-15.1,49.5-1.2,70.6
						c7,2.2,14.4,3.4,22,3.7c0.2-2.4-0.5-4.9-2.4-6.8C385.6,254.5,380,226.3,393.2,213.1z"/>
					<path class="st4" d="M379.5,179.9c-25.3,0-45.6,24.3-50.8,49c3.5,6.7,7.9,12.8,12.9,18.3c1.9-1.6,3.1-3.9,3.1-6.5
						c0-19.5,16-43.4,34.7-43.4c4.8,0,8.7-3.9,8.7-8.7S384.3,179.9,379.5,179.9z"/>
					<path class="st4" d="M365.2,111.7c-6.7,3.5-12.8,7.9-18.3,12.9c1.6,1.9,3.9,3.1,6.5,3.1c19.5,0,43.4,16,43.4,34.7
						c0,4.8,3.9,8.7,8.7,8.7s8.7-3.9,8.7-8.7C414.2,137.2,389.9,116.9,365.2,111.7z"/>
					<path class="st4" d="M352.3,151.9c-10.6,1.3-21,5.3-29.7,11c-2.2,7-3.4,14.4-3.7,22c0.2,0,0.5,0.1,0.7,0.1
						c2.2,0,4.4-0.9,6.1-2.5c7-7,17.7-12,28.7-13.3s20.7,1.3,26.6,7.2c3.4,3.4,8.9,3.4,12.3,0s3.4-8.9,0-12.3
						C383.4,154.2,368.9,149.8,352.3,151.9L352.3,151.9z"/>
				</g>
			</g>
		</g>
	</g>
</g>
<g>
	<g>
		<path class="st0" d="M75.7,273C62.6,273,52,262.4,52,249.3V23.7C52,10.6,62.6,0,75.7,0s23.7,10.6,23.7,23.7v225.6
			C99.4,262.4,88.8,273,75.7,273z"/>
		<path class="st0" d="M23.7,47.4C10.6,47.4,0,36.8,0,23.7S10.6,0,23.7,0h52.1c13.1,0,23.7,10.6,23.7,23.7S88.8,47.4,75.7,47.4H23.7
			z"/>
	</g>
	<g>
		<path class="st9" d="M75.7,258c-4.8,0-8.7-3.9-8.7-8.7V23.7c0-4.8,3.9-8.7,8.7-8.7c4.8,0,8.7,3.9,8.7,8.7v225.6
			C84.4,254.1,80.5,258,75.7,258z"/>
		<path class="st9" d="M75.7,32.4h-52c-4.8,0-8.7-3.9-8.7-8.7s3.9-8.7,8.7-8.7h52.1c4.8,0,8.7,3.9,8.7,8.7S80.5,32.4,75.7,32.4z"/>
	</g>
</g>
</svg>
