<?xml version="1.0" encoding="iso-8859-1"?>
<!-- Generator: Adobe Illustrator 19.0.0, SVG Export Plug-In . SVG Version: 6.00 Build 0)  -->
<svg version="1.1" id="Capa_1" xmlns="http://www.w3.org/2000/svg" xmlns:xlink="http://www.w3.org/1999/xlink" x="0px" y="0px"
	 viewBox="0 0 512 512" style="enable-background:new 0 0 512 512;" xml:space="preserve">
<path style="fill:#6F6571;" d="M424.339,504.5H87.661c-8.854,0-16.032-7.178-16.032-16.032V23.532
	c0-8.854,7.178-16.032,16.032-16.032h336.677c8.854,0,16.032,7.178,16.032,16.032v464.935
	C440.371,497.322,433.193,504.5,424.339,504.5z"/>
<path style="fill:#4B3F4E;" d="M395.619,323.474c-9.791-9.791-43.425-43.425-43.425-43.425H159.806c0,0-33.634,33.634-43.425,43.425
	c-3.007,3.007-4.672,7.06-4.672,11.312v113.602c0,4.427,3.589,8.016,8.016,8.016h272.548c4.427,0,8.016-3.589,8.016-8.016V334.785
	C400.29,330.534,398.626,326.48,395.619,323.474z"/>
<path style="fill:#5D5360;" d="M392.274,456.403h-72.145v-40.081h80.161v32.065C400.29,452.814,396.701,456.403,392.274,456.403z"/>
<path style="fill:#C0BCC1;" d="M267.336,403.61L151.79,288.065c-10.581,10.581-28.659,28.659-35.409,35.409
	c-3.007,3.007-4.672,7.06-4.672,11.312v113.602c0,4.427,3.589,8.016,8.016,8.016h144.29c4.427,0,8.016-3.589,8.016-8.016v-33.44
	C272.032,410.695,270.343,406.617,267.336,403.61z"/>
<circle style="fill:#DBD9DC;" cx="256" cy="191.87" r="144.29"/>
<g>
	<path style="fill:#C9C6CA;" d="M272.032,320.129c-79.689,0-144.29-64.601-144.29-144.29c0-35.762,13.082-68.42,34.628-93.63
		c-30.965,26.465-50.661,65.735-50.661,109.663c0,79.689,64.601,144.29,144.29,144.29c43.927,0,83.197-19.695,109.662-50.661
		C340.452,307.047,307.795,320.129,272.032,320.129z"/>
	<circle style="fill:#C9C6CA;" cx="256" cy="191.87" r="40.08"/>
	<path style="fill:#C9C6CA;" d="M292.896,280.048l-109.359,72.906c-13.802,9.201-15.736,28.73-4.006,40.459l0,0
		c11.73,11.73,31.258,9.796,40.459-4.006L292.896,280.048z"/>
</g>
<path style="fill:#FFDC64;" d="M312.113,360.21c-4.427,0-8.016,3.589-8.016,8.016v48.097c0,4.427,3.589,8.016,8.016,8.016h88.177
	V360.21H312.113z"/>
<path style="fill:#5D5360;" d="M119.726,472.435c-13.282,0-24.048-10.767-24.048-24.048V7.5h-8.016
	c-8.854,0-16.032,7.178-16.032,16.032v464.935c0,8.854,7.178,16.032,16.032,16.032h336.677c8.854,0,16.032-7.178,16.032-16.032
	v-16.032H119.726z"/>
<path style="fill:#FFC850;" d="M344.177,399c-8.854,0-16.032-7.178-16.032-16.032V360.21h-16.032c-4.427,0-8.016,3.589-8.016,8.016
	v48.097c0,4.427,3.589,8.016,8.016,8.016h88.177V399H344.177z"/>
<path d="M424.339,0H87.661C74.686,0,64.129,10.557,64.129,23.532v464.936c0,12.976,10.557,23.532,23.532,23.532h336.678
	c12.976,0,23.532-10.557,23.532-23.532V23.532C447.871,10.557,437.314,0,424.339,0z M432.871,488.468
	c0,4.705-3.827,8.532-8.532,8.532H87.661c-4.705,0-8.532-3.828-8.532-8.532V23.532c0-4.705,3.827-8.532,8.532-8.532h336.678
	c4.705,0,8.532,3.828,8.532,8.532L432.871,488.468L432.871,488.468z"/>
<path d="M208.419,191.871c0,26.236,21.345,47.581,47.581,47.581s47.581-21.345,47.581-47.581s-21.345-47.58-47.581-47.58
	S208.419,165.635,208.419,191.871z M288.581,191.871c0,17.965-14.616,32.581-32.581,32.581s-32.581-14.616-32.581-32.581
	S238.035,159.29,256,159.29S288.581,173.906,288.581,191.871z"/>
<path d="M248.46,191.871c0,4.142,3.397,7.54,7.54,7.54c4.143,0,7.54-3.398,7.54-7.54s-3.397-7.54-7.54-7.54
	S248.46,187.729,248.46,191.871z"/>
<path d="M143.854,416.839h-0.08c-4.143,0-7.46,3.358-7.46,7.5s3.397,7.5,7.54,7.5s7.5-3.358,7.5-7.5
	S147.997,416.839,143.854,416.839z"/>
<path d="M239.968,416.839h-0.08c-4.143,0-7.46,3.358-7.46,7.5s3.397,7.5,7.54,7.5s7.5-3.358,7.5-7.5S244.11,416.839,239.968,416.839
	z"/>
<path d="M143.854,336.677h-0.08c-4.143,0-7.46,3.358-7.46,7.5s3.397,7.5,7.54,7.5s7.5-3.358,7.5-7.5
	S147.997,336.677,143.854,336.677z"/>
<path d="M336.161,399.774h16.032c4.143,0,7.5-3.358,7.5-7.5s-3.357-7.5-7.5-7.5h-16.032c-4.143,0-7.5,3.358-7.5,7.5
	S332.019,399.774,336.161,399.774z"/>
<path d="M374.596,97.113c-2.589-3.233-7.31-3.755-10.542-1.166c-3.233,2.589-3.755,7.31-1.165,10.542
	c43.594,54.43,39.225,132.718-10.164,182.106c-22.463,22.464-51.488,36.183-82.746,39.35l29.158-43.738
	c1.983-2.975,1.591-6.936-0.937-9.463c-2.529-2.528-6.489-2.922-9.464-0.937l-73.144,48.763
	c-21.141-6.524-40.562-18.22-56.317-33.975c-25.837-25.836-40.065-60.187-40.065-96.725s14.229-70.889,40.065-96.726
	c49.389-49.39,127.677-53.757,182.105-10.163c3.233,2.589,7.953,2.068,10.542-1.166c2.59-3.233,2.068-7.953-1.165-10.542
	c-60.406-48.382-147.287-43.539-202.09,11.264c-28.669,28.669-44.458,66.787-44.458,107.332c0,36.122,12.542,70.313,35.551,97.616
	l-28.683,28.683c-4.428,4.429-6.867,10.329-6.867,16.615v113.602c0,8.556,6.96,15.516,15.516,15.516h272.549
	c8.556,0,15.516-6.96,15.516-15.516V334.786c0-6.286-2.438-12.187-6.868-16.616l-28.683-28.683
	C418.507,234.54,420.209,154.063,374.596,97.113z M213.75,385.247c-3.135,4.702-8.157,7.717-13.78,8.274
	c-5.613,0.557-11.139-1.415-15.135-5.411c-3.996-3.996-5.969-9.512-5.411-15.136c0.557-5.623,3.572-10.646,8.273-13.78
	l78.157-52.104L213.75,385.247z M119.21,448.387V334.786c0-2.279,0.879-4.413,2.474-6.008l28.301-28.3
	c14.397,14.052,31.448,25.113,50.01,32.492l-20.617,13.745c-8.455,5.637-13.879,14.669-14.881,24.782
	c-1.001,10.113,2.546,20.034,9.731,27.22c6.387,6.386,14.933,9.898,23.854,9.898c1.118,0,2.241-0.055,3.367-0.167
	c10.112-1.001,19.146-6.425,24.782-14.881l8.182-12.273l27.62,27.62c1.611,1.612,2.499,3.755,2.499,6.034v33.44
	c0,0.285-0.231,0.516-0.516,0.516h-144.29C119.441,448.903,119.21,448.672,119.21,448.387z M392.79,416.839h-80.677
	c-0.285,0-0.517-0.231-0.517-0.516v-48.097c0-0.285,0.231-0.516,0.517-0.516h80.677V416.839z M392.79,334.786v17.924h-80.677
	c-8.556,0-15.517,6.96-15.517,15.516v48.097c0,8.556,6.961,15.516,15.517,15.516h80.677v16.548c0,0.285-0.231,0.516-0.516,0.516
	H279.506c0.006-0.173,0.026-0.342,0.026-0.516v-33.44c0-6.285-2.447-12.194-6.892-16.64l-29.742-29.742l16.637-24.956
	c38.599-0.889,74.868-16.156,102.485-43.127l28.295,28.294C391.911,330.373,392.79,332.506,392.79,334.786z"/>
<g>
</g>
<g>
</g>
<g>
</g>
<g>
</g>
<g>
</g>
<g>
</g>
<g>
</g>
<g>
</g>
<g>
</g>
<g>
</g>
<g>
</g>
<g>
</g>
<g>
</g>
<g>
</g>
<g>
</g>
</svg>
