<svg height="512" viewBox="0 0 512 512" width="512" xmlns="http://www.w3.org/2000/svg"><g id="filled_outline" data-name="filled outline"><path d="m56 48h432v416h-432z" fill="#02c26a"/><path d="m392 80h96v304h-96z" fill="#718799"/><path d="m56 272h80v192h-80z" fill="#ffc431"/><path d="m56 48h104v72h-104z" fill="#ffc431"/><path d="m24 72h32v32h-32z" fill="#ffb401"/><path d="m24 288h32v32h-32z" fill="#ffb401"/><path d="m24 360h32v64h-32z" fill="#ffb401"/><path d="m56 120h104v152h-104z" fill="#718799"/><circle cx="184" cy="424" fill="#00b55b" r="16"/><circle cx="184" cy="392" fill="#00b55b" r="16"/><path d="m232 416h256v48h-256z" fill="#00b55b"/><path d="m232 344h160v72h-160z" fill="#62798c"/><path d="m232 304h160v40h-160z" fill="#556c80"/><path d="m160 144h64v128h-64z" fill="#62798c"/><path d="m280 152h112v120h-112z" fill="#ffc431"/><path d="m304 176h64v72h-64z" fill="#ffb401"/><path d="m328 88h64v32h-64z" fill="#ffc431"/><g fill="#8098ab"><path d="m200 48h96v64h-96z"/><path d="m392 48h96v32h-96z"/><path d="m392 384h96v32h-96z"/><circle cx="224" cy="256" r="16"/><circle cx="224" cy="224" r="16"/><circle cx="224" cy="192" r="16"/><circle cx="224" cy="160" r="16"/></g><path d="m24.00012 432h24v32a8.00009 8.00009 0 0 0 8 8h432a8.00008 8.00008 0 0 0 8-8v-416a8.00008 8.00008 0 0 0 -8-8h-432a8.00009 8.00009 0 0 0 -8 8v16h-24a8.00009 8.00009 0 0 0 -8 8v32a8.00009 8.00009 0 0 0 8 8h24v168h-24a8.00009 8.00009 0 0 0 -8 8v32a8.00009 8.00009 0 0 0 8 8h24v24h-24a8.00009 8.00009 0 0 0 -8 8v64a8.00009 8.00009 0 0 0 8 8zm8-16v-16h16v16zm32-72h64v112h-64zm144-256h16v16h-16zm32 0h16v16h-16zm32 0h16v16h-16zm16-16h-16v-16h16zm-32 0h-16v-16h16zm-32 0h-16v-16h16zm-24 48h96a8.00008 8.00008 0 0 0 8-8v-56h80v24h-56a8.00009 8.00009 0 0 0 -8 8v32a8.00009 8.00009 0 0 0 8 8h56v16h-104a8.00009 8.00009 0 0 0 -8 8v120a8.00009 8.00009 0 0 0 8 8h104v16h-152a8.00009 8.00009 0 0 0 -8 8v8h-24v-32h24a23.98443 23.98443 0 0 0 17.86926-40 23.94376 23.94376 0 0 0 0-32 23.94376 23.94376 0 0 0 0-32 23.98443 23.98443 0 0 0 -17.86926-40h-56v-80h24v56a8.00009 8.00009 0 0 0 8 8zm-56 160h16v32a40.04552 40.04552 0 0 0 40 40h24v104h-80zm24-128h33.37616a23.94119 23.94119 0 0 0 0 16h-33.37616zm64 104a8 8 0 1 1 -8-8 8.00917 8.00917 0 0 1 8 8zm-16-32a8 8 0 1 1 8 8 8.00917 8.00917 0 0 1 -8-8zm0-32a8 8 0 1 1 8 8 8.00917 8.00917 0 0 1 -8-8zm8-24a8 8 0 1 1 8-8 8.00917 8.00917 0 0 1 -8 8zm-56 16h33.37616a23.94119 23.94119 0 0 0 0 16h-33.37616zm0 32h33.37616a23.94119 23.94119 0 0 0 0 16h-33.37616zm0 32h33.37616a23.94119 23.94119 0 0 0 0 16h-33.37616zm32 80h24v8h-24a24.02719 24.02719 0 0 1 -24-24v-32h8v32a16.01833 16.01833 0 0 0 16 16zm184-64h-96v-104h96zm-16-168h16v16h-16zm64 280v-288h16v288zm-16 0h-16v-288h16zm-32-40h-144v-24h144zm-144 16h144v56h-144zm160 40h32v16h-32zm48 0h32v16h-32zm16-16v-288h16v288zm-64-304v-16h32v16zm-64 40v-16h16v16zm-184 152h-16v-136h16zm-32 0h-16v-136h16zm-32 0h-24v-136h24zm-24 16h64v48h-64zm176 176v-32h240v32zm240-384h-32v-16h32zm-416-16h88v56h-88zm-32 40v-16h16v16zm0 216v-16h16v16zm0 56h16v16h-16z"/><path d="m208.00012 392a24 24 0 1 0 -41.86926 16 24 24 0 1 0 35.73852 0 23.90124 23.90124 0 0 0 6.13074-16zm-24-8a8 8 0 1 1 -8 8 8.00917 8.00917 0 0 1 8-8zm0 48a8 8 0 1 1 8-8 8.00917 8.00917 0 0 1 -8 8z"/><path d="m248 432h224v16h-224z"/></g></svg>