<svg width="410" height="739" xmlns="http://www.w3.org/2000/svg" xmlns:xlink="http://www.w3.org/1999/xlink" overflow="hidden"><defs><clipPath id="clip0"><rect x="760" y="-1" width="410" height="739"/></clipPath><clipPath id="clip1"><rect x="761" y="0" width="409" height="737"/></clipPath><clipPath id="clip2"><rect x="761" y="0" width="409" height="737"/></clipPath></defs><g clip-path="url(#clip0)" transform="translate(-760 1)"><g clip-path="url(#clip1)"><g clip-path="url(#clip2)"><path d="M701.55 726.605 100.221 726.605 100.221 325.719 701.55 325.719 701.55 726.605ZM726.605 250.553 75.166 250.553C47.6052 250.553 25.0553 273.103 25.0553 300.664L25.0553 751.66C25.0553 779.221 47.6052 801.771 75.166 801.771L325.719 801.771 325.719 876.937 212.97 876.937 212.97 952.103 588.801 952.103 588.801 876.937 476.052 876.937 476.052 801.771 726.605 801.771C754.166 801.771 776.716 779.221 776.716 751.66L776.716 300.664C776.716 273.103 754.166 250.553 726.605 250.553Z" fill="#FFFFFF" transform="matrix(1.00074 0 0 1 -33.5429 -236.178)"/><path d="M1127.49 375.83 876.937 375.83 876.937 300.664 1127.49 300.664 1127.49 375.83ZM1127.49 501.107 876.937 501.107 876.937 425.941 1127.49 425.941 1127.49 501.107ZM1002.21 876.937C980.917 876.937 964.631 860.651 964.631 839.354 964.631 818.057 980.917 801.771 1002.21 801.771 1023.51 801.771 1039.8 818.057 1039.8 839.354 1039.8 860.651 1023.51 876.937 1002.21 876.937ZM1127.49 250.553 876.937 250.553C849.376 250.553 826.826 273.103 826.826 300.664L826.826 901.992C826.826 929.553 849.376 952.103 876.937 952.103L1127.49 952.103C1155.05 952.103 1177.6 929.553 1177.6 901.992L1177.6 300.664C1177.6 273.103 1155.05 250.553 1127.49 250.553Z" fill="#FFFFFF" transform="matrix(1.00074 0 0 1 -33.5429 -236.178)"/></g></g></g></svg>