<svg height="512" viewBox="0 0 128 128" width="512" xmlns="http://www.w3.org/2000/svg"><g><g><path d="m6.5 24.192h115v79.615h-115z" fill="#f4d844"/><g fill="#eaeaf0"><circle cx="109.5" cy="36.192" r="3"/><circle cx="18.5" cy="36.192" r="3"/><circle cx="109.5" cy="91.808" r="3"/><circle cx="18.5" cy="91.808" r="3"/></g><g><path d="m102.14 64c0 .59-.03 1.18-.08 1.75a19.746 19.746 0 0 1 -4.57 11.02 19.369 19.369 0 0 1 -2.48 2.48 19.776 19.776 0 0 1 -11.02 4.57c-.58.05-1.16.08-1.75.08s-1.18-.03-1.75-.08a19.776 19.776 0 0 1 -11.03-4.57 18.67 18.67 0 0 1 -2.47-2.48 19.687 19.687 0 0 1 -4.58-11.02c-.05-.57-.08-1.16-.08-1.75s.03-1.18.08-1.75a19.687 19.687 0 0 1 4.58-11.02 18.67 18.67 0 0 1 2.47-2.48 19.776 19.776 0 0 1 11.03-4.57c.57-.05 1.16-.08 1.75-.08s1.17.03 1.75.08a19.776 19.776 0 0 1 11.02 4.57 19.369 19.369 0 0 1 2.48 2.48 19.746 19.746 0 0 1 4.57 11.02c.05.57.08 1.16.08 1.75z" fill="#df6379"/><circle cx="82.237" cy="64" fill="#b24f60" r="13.904"/><circle cx="82.237" cy="64" fill="#df6379" r="7.904"/></g><path d="m28.234 42.048h19.25v24h-19.25z" fill="#df6379" transform="matrix(0 1 -1 0 91.907 16.189)"/><path d="m31.859 65.577h12v24h-12z" fill="#df6379" transform="matrix(0 1 -1 0 115.436 39.718)"/></g><g fill="#2d1418"><path d="m121.5 64a1.75 1.75 0 0 0 -1.75 1.75v3.417a1.75 1.75 0 0 0 3.5 0v-3.417a1.75 1.75 0 0 0 -1.75-1.75z"/><path d="m121.5 22.442h-115a1.75 1.75 0 0 0 -1.75 1.75v79.616a1.75 1.75 0 0 0 1.75 1.75h115a1.75 1.75 0 0 0 1.75-1.75v-27.724a1.75 1.75 0 0 0 -3.5 0v25.974h-111.5v-76.116h111.5v32.807a1.75 1.75 0 0 0 3.5 0v-34.557a1.75 1.75 0 0 0 -1.75-1.75z"/><path d="m109.5 31.442a4.75 4.75 0 1 0 4.75 4.75 4.756 4.756 0 0 0 -4.75-4.75zm0 6a1.25 1.25 0 1 1 1.25-1.25 1.251 1.251 0 0 1 -1.25 1.25z"/><path d="m18.5 31.442a4.75 4.75 0 1 0 4.75 4.75 4.756 4.756 0 0 0 -4.75-4.75zm0 6a1.25 1.25 0 1 1 1.25-1.25 1.251 1.251 0 0 1 -1.25 1.25z"/><path d="m109.5 87.058a4.75 4.75 0 1 0 4.75 4.75 4.755 4.755 0 0 0 -4.75-4.75zm0 6a1.25 1.25 0 1 1 1.25-1.25 1.252 1.252 0 0 1 -1.25 1.25z"/><path d="m18.5 87.058a4.75 4.75 0 1 0 4.75 4.75 4.755 4.755 0 0 0 -4.75-4.75zm0 6a1.25 1.25 0 1 1 1.25-1.25 1.252 1.252 0 0 1 -1.25 1.25z"/><path d="m77.96 81.645a1.75 1.75 0 1 0 -.824 3.4 21.691 21.691 0 1 0 -7.307-3.308 1.75 1.75 0 1 0 2.01-2.865c-.392-.275-.766-.569-1.131-.871l1.778-1.778a15.563 15.563 0 0 0 8 3.326v2.513a18.065 18.065 0 0 1 -2.526-.417zm-.06-13.288-.014-.017c-.006-.006-.014-.01-.02-.016a6.115 6.115 0 0 1 0-8.651l.015-.013.015-.018a6.128 6.128 0 0 1 8.66 0l.015.019c.008.008.017.013.025.02a6.119 6.119 0 0 1 -.006 8.645l-.019.015a.231.231 0 0 1 -.02.024 6.129 6.129 0 0 1 -8.656-.007zm-5.4 2.89a12.068 12.068 0 0 1 -2.279-5.5h2.52a9.467 9.467 0 0 0 1.541 3.715zm15.2.7 1.79 1.783a12.085 12.085 0 0 1 -5.5 2.283v-2.526a9.436 9.436 0 0 0 3.718-1.539zm-3.71-17.434v-2.526a12.085 12.085 0 0 1 5.5 2.283l-1.783 1.783a9.446 9.446 0 0 0 -3.717-1.54zm-7.225 1.542-1.783-1.783a12.07 12.07 0 0 1 5.508-2.285v2.526a9.5 9.5 0 0 0 -3.725 1.542zm13.422 13.412a9.461 9.461 0 0 0 1.54-3.717h2.523a12.074 12.074 0 0 1 -2.281 5.5zm1.54-7.217a9.451 9.451 0 0 0 -1.539-3.718l1.781-1.781a12.074 12.074 0 0 1 2.281 5.5zm.259-10.476a15.57 15.57 0 0 0 -8-3.323v-2.516a18.07 18.07 0 0 1 9.779 4.056zm-11.496-3.324a15.563 15.563 0 0 0 -8 3.326l-1.79-1.784a18.067 18.067 0 0 1 9.788-4.057zm-6.2 10.086a9.474 9.474 0 0 0 -1.542 3.714h-2.52a12.068 12.068 0 0 1 2.279-5.5zm17.7 17.69 1.783 1.783a18.07 18.07 0 0 1 -9.779 4.056v-2.516a15.57 15.57 0 0 0 7.992-3.323zm4.263-.7-1.783-1.783a15.57 15.57 0 0 0 3.32-8h2.51a18.07 18.07 0 0 1 -4.051 9.786zm4.047-13.276h-2.514a15.57 15.57 0 0 0 -3.32-8l1.783-1.783a18.07 18.07 0 0 1 4.051 9.783zm-32.077-9.777 1.784 1.784a15.56 15.56 0 0 0 -3.32 7.993h-2.515a18.072 18.072 0 0 1 4.051-9.777zm-4.047 13.277h2.511a15.567 15.567 0 0 0 3.319 7.993l-1.775 1.776a18.17 18.17 0 0 1 -4.055-9.769zm10.806 7.978 1.784-1.784a9.492 9.492 0 0 0 3.724 1.543v2.526a12.07 12.07 0 0 1 -5.508-2.285z"/><path d="m51.609 44.423a1.75 1.75 0 0 0 -1.75-1.75h-8.442a1.75 1.75 0 0 0 0 3.5h6.692v15.75h-20.5v-15.75h5.724a1.75 1.75 0 0 0 0-3.5h-7.474a1.751 1.751 0 0 0 -1.75 1.75v19.25a1.751 1.751 0 0 0 1.75 1.75h24a1.75 1.75 0 0 0 1.75-1.75z"/><path d="m49.859 69.827h-24a1.751 1.751 0 0 0 -1.75 1.75v12a1.751 1.751 0 0 0 1.75 1.75h24a1.75 1.75 0 0 0 1.75-1.75v-12a1.75 1.75 0 0 0 -1.75-1.75zm-1.75 12h-20.5v-8.5h20.5z"/><circle cx="33.234" cy="77.577" r="2"/><circle cx="42.484" cy="77.577" r="2"/><path d="m38.583 47.531a1.75 1.75 0 0 0 -2.317.871l-2.235 4.923a1.75 1.75 0 0 0 1.594 2.475h1.555l-1.059 2.47a1.75 1.75 0 1 0 3.217 1.377l2.1-4.91a1.749 1.749 0 0 0 -1.605-2.437h-1.492l1.112-2.45a1.75 1.75 0 0 0 -.87-2.319z"/></g></g></svg>